<mxfile host="65bd71144e">
    <diagram id="6Zpm3enltNcu296chofI" name="Page-1">
        <mxGraphModel dx="1758" dy="869" grid="1" gridSize="10" guides="1" tooltips="1" connect="1" arrows="1" fold="1" page="1" pageScale="1" pageWidth="850" pageHeight="1100" math="0" shadow="0">
            <root>
                <mxCell id="0"/>
                <mxCell id="1" parent="0"/>
                <mxCell id="2" value="Videography | Photography | About Me | Login | Register" style="html=1;" vertex="1" parent="1">
                    <mxGeometry width="850" height="90" as="geometry"/>
                </mxCell>
                <mxCell id="3" value="Main Video background" style="html=1;" vertex="1" parent="1">
                    <mxGeometry y="90" width="850" height="530" as="geometry"/>
                </mxCell>
                <mxCell id="4" value="Photo" style="html=1;" vertex="1" parent="1">
                    <mxGeometry x="110" y="640" width="290" height="170" as="geometry"/>
                </mxCell>
                <mxCell id="5" value="Photo" style="html=1;" vertex="1" parent="1">
                    <mxGeometry x="490" y="640" width="290" height="170" as="geometry"/>
                </mxCell>
                <mxCell id="6" value="Photo" style="html=1;" vertex="1" parent="1">
                    <mxGeometry x="110" y="870" width="290" height="170" as="geometry"/>
                </mxCell>
                <mxCell id="7" value="Photo" style="html=1;" vertex="1" parent="1">
                    <mxGeometry x="490" y="870" width="290" height="170" as="geometry"/>
                </mxCell>
            </root>
        </mxGraphModel>
    </diagram>
</mxfile>